HIERARCHY
ROOT SpineBase
{
  OFFSET 0.000000 0.000000 0.000000
  CHANNELS 6 Xposition Yposition Zposition Zrotation Xrotation Yrotation
  JOINT SpineMid
  {
    OFFSET -0.000000 30.211226 0.000000
    CHANNELS 3 Zrotation Xrotation Yrotation
    JOINT SpineShoulder
    {
      OFFSET -0.227024 22.416107 -0.681441
      CHANNELS 3 Zrotation Xrotation Yrotation
      JOINT Neck
      {
        OFFSET -0.166938 7.406288 -0.526058
        CHANNELS 3 Zrotation Xrotation Yrotation
        JOINT Head
        {
          OFFSET -6.243340 13.265619 2.277082
          CHANNELS 3 Zrotation Xrotation Yrotation
          End Site
          {
            OFFSET 0 0 0
          }
        }
      }
      JOINT ShoulderLeft
      {
        OFFSET -9.920473 -6.988312 16.595816
        CHANNELS 3 Zrotation Xrotation Yrotation
        JOINT ElbowLeft
        {
          OFFSET -0.978810 -27.930030 -1.838733
          CHANNELS 3 Zrotation Xrotation Yrotation
          JOINT WristLeft
          {
            OFFSET -2.022753 -19.758998 -6.343117
            CHANNELS 3 Zrotation Xrotation Yrotation
            JOINT HandLeft
            {
              OFFSET -0.388055 -4.470320 -2.769053
              CHANNELS 3 Zrotation Xrotation Yrotation
              JOINT HandTipLeft
              {
                OFFSET 0.047971 -8.621372 -4.094238
                CHANNELS 3 Zrotation Xrotation Yrotation
                End Site
                {
                  OFFSET 0 0 0
                }
              }
              JOINT ThumbLeft
              {
                OFFSET -2.010869 -1.565319 -0.204091
                CHANNELS 3 Zrotation Xrotation Yrotation
                End Site
                {
                  OFFSET 0 0 0
                }
              }
            }
          }
        }
      }
      JOINT ShoulderRight
      {
        OFFSET 8.199543 -2.859028 -12.404906
        CHANNELS 3 Zrotation Xrotation Yrotation
        JOINT ElbowRight
        {
          OFFSET 6.162225 -18.436863 -8.140938
          CHANNELS 3 Zrotation Xrotation Yrotation
          JOINT WristRight
          {
            OFFSET -3.420350 -24.736287 -3.720408
            CHANNELS 3 Zrotation Xrotation Yrotation
            JOINT HandRight
            {
              OFFSET -2.383800 -7.293339 0.647923
              CHANNELS 3 Zrotation Xrotation Yrotation
              JOINT HandTipRight
              {
                OFFSET -1.078306 -7.929724 0.276415
                CHANNELS 3 Zrotation Xrotation Yrotation
                End Site
                {
                  OFFSET 0 0 0
                }
              }
              JOINT ThumbRight
              {
                OFFSET -2.558762 1.343433 1.417384
                CHANNELS 3 Zrotation Xrotation Yrotation
                End Site
                {
                  OFFSET 0 0 0
                }
              }
            }
          }
        }
      }
    }
  }
  JOINT HipLeft
  {
    OFFSET -5.102095 -0.349958 2.511704
    CHANNELS 3 Zrotation Xrotation Yrotation
    JOINT KneeLeft
    {
      OFFSET 0.961749 -31.214273 -2.525218
      CHANNELS 3 Zrotation Xrotation Yrotation
      JOINT AnkleLeft
      {
        OFFSET 5.754035 -35.229211 3.774033
        CHANNELS 3 Zrotation Xrotation Yrotation
        JOINT FootLeft
        {
          OFFSET -1.928483 -6.398325 -5.545514
          CHANNELS 3 Zrotation Xrotation Yrotation
          End Site
          {
            OFFSET 0 0 0
          }
        }
      }
    }
  }
  JOINT HipRight
  {
    OFFSET 3.106313 1.661741 -9.342032
    CHANNELS 3 Zrotation Xrotation Yrotation
    JOINT KneeRight
    {
      OFFSET 8.648523 -27.376974 -7.333932
      CHANNELS 3 Zrotation Xrotation Yrotation
      JOINT AnkleRight
      {
        OFFSET 12.024292 -37.819126 8.522859
        CHANNELS 3 Zrotation Xrotation Yrotation
        JOINT FootRight
        {
          OFFSET -1.279891 -6.733737 -3.711564
          CHANNELS 3 Zrotation Xrotation Yrotation
          End Site
          {
            OFFSET 0 0 0
          }
        }
      }
    }
  }
}
MOTION
Frames: 5
Frame Time: 0.033333
103.217490 69.593521 347.564606 2.181250 -2.850390 45.008508 -0.071578 0.025703 -44.916953 0.103264 -0.207873 0.053880 -7.986602 0.598365 -0.025691 0.000000 0.000000 0.000000 0.361635 -3.718542 0.055818 1.334937 18.856752 -3.166803 14.109157 -20.660084 -2.765032 -17.295777 2.977335 11.007419 0.000000 0.000000 0.000000 0.000000 0.000000 0.000000 0.625199 -2.625765 -3.251186 -5.263885 3.262856 4.158914 6.601656 -0.713863 0.587031 -10.056945 12.719332 -1.951685 0.000000 0.000000 0.000000 0.000000 0.000000 0.000000 -3.604164 12.733686 -43.519476 10.479856 -4.506615 -0.457424 -19.659886 19.668405 11.403346 0.000000 0.000000 0.000000 8.471763 12.850079 -42.078523 2.693308 -13.786569 -3.345256 -4.779207 12.264548 -0.589306 0.000000 0.000000 0.000000
105.061437 69.072061 346.817760 1.368350 -2.973592 42.793688 -0.103811 0.088891 -42.747253 0.053837 -0.132122 0.013909 -9.271848 -0.094105 0.092855 0.000000 0.000000 0.000000 0.025657 -3.711301 0.174494 3.863993 21.334022 -4.296017 17.769363 -30.661119 -0.120445 -21.485598 10.323904 13.958463 0.000000 0.000000 0.000000 0.000000 0.000000 0.000000 0.726089 -4.767204 -3.570518 -5.597659 5.147251 4.942995 5.373035 1.171211 -0.387643 -10.984836 9.673613 -1.154349 0.000000 0.000000 0.000000 0.000000 0.000000 0.000000 -5.634255 14.329251 -40.643144 12.194046 -5.689628 -0.979614 -22.312315 22.916759 14.825392 0.000000 0.000000 0.000000 11.046818 13.833025 -39.749759 4.988752 -14.908095 -1.819949 -16.159672 20.369987 2.276812 0.000000 0.000000 0.000000
107.663298 69.239572 345.479172 -0.148572 -2.709022 41.345471 0.038564 0.047925 -41.380249 0.016721 -0.047332 -0.039240 -10.049072 -0.857068 0.330061 0.000000 0.000000 0.000000 -0.859023 -4.530628 0.371779 7.069721 24.694185 -5.486564 21.500988 -42.905814 5.435721 -23.705605 19.705979 15.837902 0.000000 0.000000 0.000000 0.000000 0.000000 0.000000 -0.043928 -6.794367 -3.154589 -5.787671 6.162390 5.234540 5.434558 4.167880 -1.828763 -12.123650 3.004428 -0.383010 0.000000 0.000000 0.000000 0.000000 0.000000 0.000000 -7.558488 14.583959 -38.652494 12.550904 -6.495430 -1.836356 -22.802426 25.027442 17.823643 0.000000 0.000000 0.000000 12.951068 12.717314 -38.355203 7.505190 -13.856227 0.347203 -27.871259 26.374085 5.818694 0.000000 0.000000 0.000000
110.566763 69.960360 343.761633 -2.009924 -2.122761 40.655353 0.087192 0.062408 -40.772022 -0.003390 0.011857 -0.105251 -10.153363 -1.419320 0.739454 0.000000 0.000000 0.000000 -2.413213 -6.191448 0.571201 10.393354 27.783320 -6.228008 24.808572 -47.247440 8.264958 -24.054283 22.266420 16.071073 0.000000 0.000000 0.000000 0.000000 0.000000 0.000000 -0.779357 -8.580384 -2.448097 -6.603753 6.571557 5.428091 7.358969 3.768543 -2.291867 -14.272535 3.962656 -0.356162 0.000000 0.000000 0.000000 0.000000 0.000000 0.000000 -9.396456 13.868466 -37.610080 11.324881 -6.658602 -2.992878 -20.565837 25.690530 19.938311 0.000000 0.000000 0.000000 14.379871 8.796324 -38.161862 8.656232 -10.653336 2.535815 -38.813631 29.866359 9.899395 0.000000 0.000000 0.000000
114.047013 70.843545 341.721724 -4.456634 -1.415102 41.096538 0.061837 0.079978 -41.296695 0.074166 0.041955 -0.190760 -9.278095 -2.101241 1.032188 0.000000 0.000000 0.000000 -4.273934 -9.672378 0.615791 13.407237 30.965230 -6.432157 21.640560 -41.689840 5.147231 -24.004087 12.543618 16.440053 0.000000 0.000000 0.000000 0.000000 0.000000 0.000000 -1.279679 -8.730276 -0.970018 -7.204220 5.928841 4.623174 7.764070 -1.181534 -1.632131 -15.000667 10.362133 -0.098199 0.000000 0.000000 0.000000 0.000000 0.000000 0.000000 -11.438062 12.838733 -37.762767 11.657822 -6.348512 -4.032778 -22.333031 26.724360 24.686318 0.000000 0.000000 0.000000 15.653164 3.272282 -39.109900 8.853381 -6.705774 4.208974 -47.169678 31.029015 13.312408 0.000000 0.000000 0.000000
